<svg xmlns="http://www.w3.org/2000/svg" x="0px" y="0px" viewBox="0 0 864 864" enable-background="new 0 0 864 864"><style>.ls0{fill:#fff}</style><g><path class="ls0" d="M314.5,148.3L148.3,314.5c0,2.2,0,233.3,0,235l166.2,166.2c10.9,0,87.3,0,104.1,0c0-7.2,0-157.3,0-164.2h-68	v96.2h-7.9L216.3,521.3V466v0h68v-68h-68c0-10.3,0-45,0-55.3l126.3-126.3h7.9v96.2h68c0-6.9,0-157,0-164.2	C392.8,148.3,332.5,148.3,314.5,148.3z"/><path class="ls0" d="M549.5,148.3c-10.9,0-87.3,0-104.1,0c0,373.7,0,127.5,0,567.4h68c0-2.8,0-233.4,0-249.7h0.7h133.5v55.3	l-63.2,63.2l48.1,48.1l83.1-83.1c0-2.2,0-233.3,0-235C708.4,307.2,556.8,155.6,549.5,148.3z M647.7,398H514.1h-0.7	c0-6.9,0-174.6,0-181.6h7.9c5.5,5.5,120.8,120.8,126.3,126.3V398z"/></g></svg>